<?xml version="1.0" encoding="UTF-8" standalone="no"?>
<!-- Created with Inkscape (http://www.inkscape.org/) -->

<svg
   xmlns:dc="http://purl.org/dc/elements/1.1/"
   xmlns:cc="http://creativecommons.org/ns#"
   xmlns:rdf="http://www.w3.org/1999/02/22-rdf-syntax-ns#"
   xmlns:svg="http://www.w3.org/2000/svg"
   xmlns="http://www.w3.org/2000/svg"
   xmlns:sodipodi="http://sodipodi.sourceforge.net/DTD/sodipodi-0.dtd"
   xmlns:inkscape="http://www.inkscape.org/namespaces/inkscape"
   width="552.79828"
   height="533.9375"
   viewBox="0 0 552.79828 533.93746"
   id="svg2"
   version="1.1"
   inkscape:version="0.91 r13725"
   sodipodi:docname="wurfel_bronze_poliertsvg.svg"
   inkscape:export-filename="/home/manu/Bureau/zzz.svg.png"
   inkscape:export-xdpi="200"
   inkscape:export-ydpi="200">
  <sodipodi:namedview
     id="base"
     pagecolor="#ffffff"
     bordercolor="#666666"
     borderopacity="1.0"
     inkscape:pageopacity="1"
     inkscape:pageshadow="2"
     inkscape:zoom="0.35355339"
     inkscape:cx="315.38745"
     inkscape:cy="285.99825"
     inkscape:document-units="px"
     inkscape:current-layer="svg2"
     showgrid="true"
     inkscape:window-width="1366"
     inkscape:window-height="715"
     inkscape:window-x="0"
     inkscape:window-y="0"
     inkscape:window-maximized="1"
     inkscape:object-nodes="true"
     inkscape:object-paths="true"
     showborder="true"
     inkscape:snap-global="true"
     showguides="true"
     inkscape:guide-bbox="true"
     inkscape:snap-object-midpoints="true"
     inkscape:snap-smooth-nodes="true"
     inkscape:snap-intersection-paths="true"
     inkscape:snap-center="true"
     fit-margin-top="0"
     fit-margin-left="0"
     fit-margin-right="0"
     fit-margin-bottom="0"
     units="px" />
  <defs
     id="defs4" />
  <metadata
     id="metadata7">
    <rdf:RDF>
      <cc:Work
         rdf:about="">
        <dc:format>image/svg+xml</dc:format>
        <dc:type
           rdf:resource="http://purl.org/dc/dcmitype/StillImage" />
        <dc:title></dc:title>
      </cc:Work>
    </rdf:RDF>
  </metadata>
  <style
     id="style5913"
     type="text/css">
	.st0{fill:#85BB5F;stroke:#000;stroke-width:0.25;}
	.st1{fill:#3D7B3E;stroke:#000;stroke-linejoin:round;}
	.st2{fill:#94C473;}
</style>
  <style
     type="text/css"
     id="style5913-0">
	.st0{fill:#85BB5F;stroke:#000;stroke-width:0.25;}
	.st1{fill:#3D7B3E;stroke:#000;stroke-linejoin:round;}
	.st2{fill:#94C473;}
</style>
  <style
     type="text/css"
     id="style5913-4">
	.st0{fill:#85BB5F;stroke:#000;stroke-width:0.25;}
	.st1{fill:#3D7B3E;stroke:#000;stroke-linejoin:round;}
	.st2{fill:#94C473;}
</style>
  <style
     id="style5913-0-9"
     type="text/css">
	.st0{fill:#85BB5F;stroke:#000;stroke-width:0.25;}
	.st1{fill:#3D7B3E;stroke:#000;stroke-linejoin:round;}
	.st2{fill:#94C473;}
</style>
  <g
     id="g4201"
     transform="matrix(0.70444455,0,0,0.70444455,0,-8.9132135e-6)">
    <g
       style="fill:#80633f;fill-opacity:1;stroke:#80633f;stroke-width:2;stroke-linejoin:round;stroke-opacity:1"
       transform="translate(-2699.6172,76.000377)"
       id="g4921">
      <path
         inkscape:connector-curvature="0"
         id="path4355"
         d="m 3241.8801,457.75707 103.5874,-59.80621 0,149.33246 -103.5874,59.80622 z"
         style="fill:#80633f;fill-opacity:1;fill-rule:evenodd;stroke:#80633f;stroke-width:2;stroke-linecap:butt;stroke-linejoin:round;stroke-opacity:1" />
      <path
         inkscape:connector-curvature="0"
         id="path4357"
         d="m 2817.454,51.843313 103.5874,-59.806214 149.2753,39.998188 -103.5874,59.806215 z"
         style="fill:#80633f;fill-opacity:1;fill-rule:evenodd;stroke:#80633f;stroke-width:2;stroke-linecap:butt;stroke-linejoin:round;stroke-opacity:1" />
      <path
         inkscape:connector-curvature="0"
         id="path4359"
         d="m 3241.8801,158.04362 103.5874,-59.863826 0,149.275306 -103.5874,59.80622 z"
         style="fill:#80633f;fill-opacity:1;fill-rule:evenodd;stroke:#80633f;stroke-width:2;stroke-linecap:butt;stroke-linejoin:round;stroke-opacity:1" />
      <path
         inkscape:connector-curvature="0"
         id="path4361"
         d="m 3356.7788,250.48598 0,150.49576 -103.5874,59.80621 0,-150.49575 z"
         style="fill:#80633f;fill-opacity:1;fill-rule:evenodd;stroke:#80633f;stroke-width:2;stroke-linecap:butt;stroke-linejoin:round;stroke-opacity:1" />
      <path
         inkscape:connector-curvature="0"
         id="path4363"
         d="m 2714.4641,103.6655 102.9899,-59.461242 149.2753,39.99819 -102.9899,59.461242 z"
         style="fill:#80633f;fill-opacity:1;fill-rule:evenodd;stroke:#80633f;stroke-width:2;stroke-linecap:butt;stroke-linejoin:round;stroke-opacity:1" />
      <path
         id="path4365"
         d="m 2714.4637,103.66497 0,149.2754 299.7148,80.30859 0,-149.27539 0,-10.04101 -150.4394,-40.31055 0,10.04102 -149.2754,-39.99806 z"
         style="fill:#80633f;fill-opacity:1;fill-rule:evenodd;stroke:#80633f;stroke-width:2;stroke-linecap:butt;stroke-linejoin:round;stroke-opacity:1"
         inkscape:connector-curvature="0" />
      <path
         inkscape:connector-curvature="0"
         id="path4367"
         d="m 2714.4641,403.37896 149.2753,39.9982 0,149.27528 -149.2753,-39.99819 z"
         style="fill:#80633f;fill-opacity:1;fill-rule:evenodd;stroke:#80633f;stroke-width:2;stroke-linecap:butt;stroke-linejoin:round;stroke-opacity:1" />
      <path
         inkscape:connector-curvature="0"
         id="path4369"
         d="m 2873.3316,437.83909 150.4382,40.3098 0,149.27529 -150.4382,-40.3098 z"
         style="fill:#80633f;fill-opacity:1;fill-rule:evenodd;stroke:#80633f;stroke-width:2;stroke-linecap:butt;stroke-linejoin:round;stroke-opacity:1" />
      <path
         sodipodi:nodetypes="ccccc"
         inkscape:connector-curvature="0"
         id="path4371"
         d="m 2700.6172,260.93536 13.8465,-7.99499 299.7148,80.30859 -13.8478,7.99439 z"
         style="fill:#80633f;fill-opacity:1;fill-rule:evenodd;stroke:#80633f;stroke-width:2;stroke-linecap:butt;stroke-linejoin:round;stroke-opacity:1" />
      <path
         id="path4373"
         d="m 3266.2391,313.78802 -102.7871,59.34375 0,150.49609 -13.8457,7.99414 0,149.33203 13.8457,-7.99414 102.7871,-59.34375 0,-299.82812 z"
         style="fill:#80633f;fill-opacity:1;fill-rule:evenodd;stroke:#80633f;stroke-width:2;stroke-linecap:butt;stroke-linejoin:round;stroke-opacity:1"
         inkscape:connector-curvature="0" />
      <path
         id="path4375"
         d="m 3014.1785,183.97356 -3.4414,1.98634 0,299.71485 149.2754,39.93944 3.4395,-1.98632 0,-150.4961 14.2089,3.63477 0,-149.16015 -163.4824,-43.63282 z"
         style="fill:#80633f;fill-opacity:1;fill-rule:evenodd;stroke:#80633f;stroke-width:2;stroke-linecap:butt;stroke-linejoin:round;stroke-opacity:1"
         inkscape:connector-curvature="0" />
      <path
         inkscape:connector-curvature="0"
         id="path4377"
         d="m 3000.3307,491.68151 149.2753,39.94101 -1e-4,149.33247 -149.2752,-39.9982 z"
         style="fill:#80633f;fill-opacity:1;fill-rule:evenodd;stroke:#80633f;stroke-width:2;stroke-linecap:butt;stroke-linejoin:round;stroke-opacity:1" />
      <path
         inkscape:connector-curvature="0"
         id="path4379"
         d="m 3356.7788,400.98174 102.7867,-59.34393 0,149.33242 -102.7867,59.34397 z"
         style="fill:#80633f;fill-opacity:1;fill-rule:evenodd;stroke:#80633f;stroke-width:2;stroke-linecap:butt;stroke-linejoin:round;stroke-opacity:1" />
      <path
         id="path4381"
         d="m 3472.6141,45.305599 -102.7871,59.400391 0,299.77148 102.7871,-59.34375 10.7324,-6.19727 0,-150.49609 -10.7324,6.19727 0,-149.332031 z"
         style="fill:#80633f;fill-opacity:1;fill-rule:evenodd;stroke:#80633f;stroke-width:2;stroke-linecap:butt;stroke-linejoin:round;stroke-opacity:1"
         inkscape:connector-curvature="0" />
      <path
         sodipodi:nodetypes="ccccccccc"
         inkscape:connector-curvature="0"
         id="path4383"
         d="m 3323.5418,5.36224 -309.3633,178.61132 163.279,43.75018 102.7871,-59.40039 -38.3649,-10.27947 103.5879,-59.863281 24.3594,6.525391 102.7871,-59.400391 z"
         style="fill:#80633f;fill-opacity:1;fill-rule:evenodd;stroke:#80633f;stroke-width:2;stroke-linecap:butt;stroke-linejoin:round;stroke-opacity:1" />
      <path
         inkscape:connector-curvature="0"
         id="path4385"
         d="m 2921.0414,-15.601956 102.5833,-59.398459 149.4787,40.052702 -102.7867,59.343945 z"
         style="fill:#80633f;fill-opacity:1;fill-rule:evenodd;stroke:#80633f;stroke-width:2;stroke-linecap:butt;stroke-linejoin:round;stroke-opacity:1" />
      <path
         inkscape:connector-curvature="0"
         id="path4387"
         d="m 2873.3316,587.11438 -9.5922,5.53806 0,-149.27529 9.5922,-5.53806 z"
         style="fill:#80633f;fill-opacity:1;fill-rule:evenodd;stroke:#80633f;stroke-width:2;stroke-linecap:butt;stroke-linejoin:round;stroke-opacity:1" />
      <path
         inkscape:connector-curvature="0"
         id="path4389"
         d="m 2700.6172,260.93536 299.7135,80.30799 0,150.43816 -299.7135,-80.308 z"
         style="fill:#80633f;fill-opacity:1;fill-rule:evenodd;stroke:#80633f;stroke-width:2;stroke-linecap:butt;stroke-linejoin:round;stroke-opacity:1" />
      <path
         inkscape:connector-curvature="0"
         id="path4391"
         d="m 3356.7788,250.48598 -11.3113,-3.03086 -103.5874,59.8062 11.3113,3.03088 z"
         style="fill:#80633f;fill-opacity:1;fill-rule:evenodd;stroke:#80633f;stroke-width:2;stroke-linecap:butt;stroke-linejoin:round;stroke-opacity:1" />
      <path
         inkscape:connector-curvature="0"
         id="path4393"
         d="m 3177.6612,227.60694 102.7865,-59.40098 0,149.21769 -102.7865,59.34384 z"
         style="fill:#80633f;fill-opacity:1;fill-rule:evenodd;stroke:#80633f;stroke-width:2;stroke-linecap:butt;stroke-linejoin:round;stroke-opacity:1" />
      <path
         inkscape:connector-curvature="0"
         id="path4395"
         d="m 2863.7394,133.62254 309.364,-178.611404 150.4382,40.309794 -309.364,178.6114 z"
         style="fill:#80633f;fill-opacity:1;fill-rule:evenodd;stroke:#80633f;stroke-width:2;stroke-linecap:butt;stroke-linejoin:round;stroke-opacity:1" />
      <path
         sodipodi:nodetypes="ccccc"
         inkscape:connector-curvature="0"
         id="path4397"
         d="m 3000.3307,491.68151 10.4056,-6.00771 0,-150.43764 -10.4056,6.0072 z"
         style="fill:#80633f;fill-opacity:1;fill-rule:evenodd;stroke:#80633f;stroke-width:2;stroke-linecap:butt;stroke-linejoin:round;stroke-opacity:1" />
      <path
         inkscape:connector-curvature="0"
         id="path4399"
         d="m 3010.7363,485.67379 149.2753,39.94103 -10.4056,6.0077 -149.2753,-39.94101 z"
         style="fill:#80633f;fill-opacity:1;fill-rule:evenodd;stroke:#80633f;stroke-width:2;stroke-linecap:butt;stroke-linejoin:round;stroke-opacity:1" />
      <path
         inkscape:connector-curvature="0"
         id="path4401"
         d="m 3483.3465,188.44157 -10.7324,-2.87574 0,9.0718 z"
         style="fill:#80633f;fill-opacity:1;fill-rule:evenodd;stroke:#80633f;stroke-width:2;stroke-linecap:butt;stroke-linejoin:round;stroke-opacity:1" />
      <path
         inkscape:connector-curvature="0"
         id="path4403"
         d="m 3369.827,404.47748 -13.0482,-3.49573 0,-150.49576 -11.3113,-3.03085 10e-5,-149.274541 24.3594,6.525391 z"
         style="fill:#80633f;fill-opacity:1;fill-rule:evenodd;stroke:#80633f;stroke-width:2;stroke-linecap:butt;stroke-linejoin:round;stroke-opacity:1" />
      <path
         inkscape:connector-curvature="0"
         id="path4405"
         d="m 3356.7788,550.3142 -11.3113,-3.03088 0,-139.771 11.3113,-6.53058 z"
         style="fill:#80633f;fill-opacity:1;fill-rule:evenodd;stroke:#80633f;stroke-width:2;stroke-linecap:butt;stroke-linejoin:round;stroke-opacity:1" />
      <path
         inkscape:connector-curvature="0"
         id="path4407"
         d="m 3323.5416,-4.67907 2e-4,10.04131 -309.3633,178.61132 0,-10.04101 z"
         style="fill:#80633f;fill-opacity:1;fill-rule:evenodd;stroke:#80633f;stroke-width:2;stroke-linecap:butt;stroke-linejoin:round;stroke-opacity:1" />
      <path
         inkscape:connector-curvature="0"
         id="path4409"
         d="m 2921.0414,-15.601956 0,7.639055 128.3594,34.393785 9.0371,-5.217572 z"
         style="fill:#80633f;fill-opacity:1;fill-rule:evenodd;stroke:#80633f;stroke-width:2;stroke-linecap:butt;stroke-linejoin:round;stroke-opacity:1" />
    </g>
    <path
       inkscape:connector-curvature="0"
       id="path5531"
       d="m 542.263,534.08635 103.5874,-59.80621 0,149.33246 -103.5874,59.80622 z"
       style="fill:#eac387;fill-opacity:1;fill-rule:evenodd;stroke:none;stroke-width:1px;stroke-linecap:butt;stroke-linejoin:miter;stroke-opacity:1" />
    <path
       inkscape:connector-curvature="0"
       id="path5543"
       d="M 117.8369,128.17259 221.4243,68.366375 370.6996,108.36456 267.1122,168.17078 Z"
       style="fill:#564633;fill-opacity:1;fill-rule:evenodd;stroke:none;stroke-width:1px;stroke-linecap:butt;stroke-linejoin:miter;stroke-opacity:1" />
    <path
       inkscape:connector-curvature="0"
       id="path5527"
       d="m 542.263,234.3729 103.5874,-59.86383 0,149.27531 -103.5874,59.80621 z"
       style="fill:#e5bf8a;fill-opacity:1;fill-rule:evenodd;stroke:none;stroke-width:1px;stroke-linecap:butt;stroke-linejoin:miter;stroke-opacity:1" />
    <path
       inkscape:connector-curvature="0"
       id="path5529"
       d="m 657.1617,326.81526 0,150.49576 -103.5874,59.80621 0,-150.49576 z"
       style="fill:#deb981;fill-opacity:1;fill-rule:evenodd;stroke:none;stroke-width:1px;stroke-linecap:butt;stroke-linejoin:miter;stroke-opacity:1" />
    <path
       inkscape:connector-curvature="0"
       id="path5541"
       d="m 14.847,179.99478 102.9899,-59.46125 149.2753,39.99819 -102.9899,59.46125 z"
       style="fill:#80633f;fill-opacity:1;fill-rule:evenodd;stroke:none;stroke-width:1px;stroke-linecap:butt;stroke-linejoin:miter;stroke-opacity:1" />
    <path
       id="path5511"
       d="m 14.8466,179.99425 0,149.27539 299.7148,80.30859 0,-149.27539 0,-10.04101 -150.4394,-40.31055 0,10.04102 -149.2754,-39.99805 z"
       style="fill:#564633;fill-opacity:1;fill-rule:evenodd;stroke:none;stroke-width:1px;stroke-linecap:butt;stroke-linejoin:miter;stroke-opacity:1"
       inkscape:connector-curvature="0" />
    <path
       inkscape:connector-curvature="0"
       id="path5515"
       d="m 14.847,479.70823 149.2753,39.9982 0,149.27529 L 14.847,628.98353 Z"
       style="fill:#bc8f52;fill-opacity:1;fill-rule:evenodd;stroke:none;stroke-width:1px;stroke-linecap:butt;stroke-linejoin:miter;stroke-opacity:1" />
    <path
       inkscape:connector-curvature="0"
       id="path5517"
       d="m 173.7145,514.16837 150.4382,40.3098 0,149.27529 -150.4382,-40.3098 z"
       style="fill:#c29750;fill-opacity:1;fill-rule:evenodd;stroke:none;stroke-width:1px;stroke-linecap:butt;stroke-linejoin:miter;stroke-opacity:1" />
    <path
       sodipodi:nodetypes="ccccc"
       inkscape:connector-curvature="0"
       id="path5552"
       d="m 1.0001,337.26464 13.8465,-7.995 299.7148,80.30859 -13.8478,7.9944 z"
       style="fill:#f7f3ea;fill-opacity:1;fill-rule:evenodd;stroke:none;stroke-width:1px;stroke-linecap:butt;stroke-linejoin:miter;stroke-opacity:1" />
    <path
       id="path5525"
       d="m 566.622,390.1173 -102.7871,59.34375 0,150.49609 -13.8457,7.99414 0,149.33203 13.8457,-7.99414 102.7871,-59.34375 0,-299.82812 z"
       style="fill:#e9c289;fill-opacity:1;fill-rule:evenodd;stroke:none;stroke-width:1px;stroke-linecap:butt;stroke-linejoin:miter;stroke-opacity:1"
       inkscape:connector-curvature="0" />
    <path
       id="path5519"
       d="m 314.5614,260.30284 -3.4414,1.98633 0,299.71485 149.2754,39.93945 3.4395,-1.98633 0,-150.49609 14.2089,3.63476 0,-149.16015 -163.4824,-43.63282 z"
       style="fill:#b48b48;fill-opacity:1;fill-rule:evenodd;stroke:none;stroke-width:1px;stroke-linecap:butt;stroke-linejoin:miter;stroke-opacity:1"
       inkscape:connector-curvature="0" />
    <path
       inkscape:connector-curvature="0"
       id="path5521"
       d="m 300.7136,568.01078 149.2753,39.94101 -10e-5,149.33248 -149.2752,-39.9982 z"
       style="fill:#bc8e52;fill-opacity:1;fill-rule:evenodd;stroke:none;stroke-width:1px;stroke-linecap:butt;stroke-linejoin:miter;stroke-opacity:1" />
    <path
       inkscape:connector-curvature="0"
       id="path5535"
       d="m 657.1617,477.31102 102.7867,-59.34393 0,149.33242 -102.7867,59.34397 z"
       style="fill:#deb981;fill-opacity:1;fill-rule:evenodd;stroke:none;stroke-width:1px;stroke-linecap:butt;stroke-linejoin:miter;stroke-opacity:1" />
    <path
       id="path5533"
       d="m 772.997,121.63488 -102.7871,59.40039 0,299.77148 102.7871,-59.34375 10.7324,-6.19727 0,-150.49609 -10.7324,6.19727 0,-149.33203 z"
       style="fill:#e9c289;fill-opacity:1;fill-rule:evenodd;stroke:none;stroke-width:1px;stroke-linecap:butt;stroke-linejoin:miter;stroke-opacity:1"
       inkscape:connector-curvature="0" />
    <path
       sodipodi:nodetypes="ccccccccc"
       inkscape:connector-curvature="0"
       id="path5537"
       d="m 623.9247,81.691516 -309.3633,178.611324 163.279,43.75018 102.7871,-59.40039 -38.3649,-10.27947 103.5879,-59.86328 24.3594,6.52539 102.7871,-59.40039 z"
       style="fill:#ffebc4;fill-opacity:1;fill-rule:evenodd;stroke:none;stroke-width:1px;stroke-linecap:butt;stroke-linejoin:miter;stroke-opacity:1" />
    <path
       inkscape:connector-curvature="0"
       id="path5545"
       d="M 221.4243,60.72732 324.0076,1.3288612 473.4863,41.381563 370.6996,100.72551 Z"
       style="fill:#bc8f52;fill-opacity:1;fill-rule:evenodd;stroke:none;stroke-width:1px;stroke-linecap:butt;stroke-linejoin:miter;stroke-opacity:1" />
    <path
       inkscape:connector-curvature="0"
       id="path5558"
       d="m 173.7145,663.44366 -9.5922,5.53806 0,-149.27529 9.5922,-5.53806 z"
       style="fill:#c89b5e;fill-opacity:1;fill-rule:evenodd;stroke:none;stroke-width:1px;stroke-linecap:butt;stroke-linejoin:miter;stroke-opacity:1" />
    <path
       inkscape:connector-curvature="0"
       id="path5513"
       d="m 1.0001,337.26464 299.7135,80.30799 0,150.43815 -299.7135,-80.308 z"
       style="fill:#80633f;fill-opacity:1;fill-rule:evenodd;stroke:none;stroke-width:1px;stroke-linecap:butt;stroke-linejoin:miter;stroke-opacity:1" />
    <path
       inkscape:connector-curvature="0"
       id="path5582"
       d="m 657.1617,326.81526 -11.3113,-3.03086 -103.5874,59.80619 11.3113,3.03088 z"
       style="fill:#e9d0b7;fill-opacity:1;fill-rule:evenodd;stroke:none;stroke-width:1px;stroke-linecap:butt;stroke-linejoin:miter;stroke-opacity:1" />
    <path
       inkscape:connector-curvature="0"
       id="path5523"
       d="m 478.0441,303.93622 102.7865,-59.40098 0,149.21769 -102.7865,59.34384 z"
       style="fill:#af8b61;fill-opacity:1;fill-rule:evenodd;stroke:none;stroke-width:1px;stroke-linecap:butt;stroke-linejoin:miter;stroke-opacity:1" />
    <path
       inkscape:connector-curvature="0"
       id="path5539"
       d="M 164.1223,209.95182 473.4863,31.340412 623.9245,71.650206 314.5605,250.26161 Z"
       style="fill:#f3e0c2;fill-opacity:1;fill-rule:evenodd;stroke:none;stroke-width:1px;stroke-linecap:butt;stroke-linejoin:miter;stroke-opacity:1" />
    <path
       sodipodi:nodetypes="ccccc"
       inkscape:connector-curvature="0"
       id="path5554"
       d="m 300.7136,568.01078 10.4056,-6.00771 0,-150.43764 -10.4056,6.0072 z"
       style="fill:#be8f52;fill-opacity:1;fill-rule:evenodd;stroke:none;stroke-width:1px;stroke-linecap:butt;stroke-linejoin:miter;stroke-opacity:1" />
    <path
       inkscape:connector-curvature="0"
       id="path5556"
       d="m 311.1192,562.00307 149.2753,39.94103 -10.4056,6.00769 -149.2753,-39.94101 z"
       style="fill:#f7f3ea;fill-opacity:1;fill-rule:evenodd;stroke:none;stroke-width:1px;stroke-linecap:butt;stroke-linejoin:miter;stroke-opacity:1" />
    <path
       inkscape:connector-curvature="0"
       id="path5580"
       d="m 783.7294,264.77085 -10.7324,-2.87574 0,9.0718 z"
       style="fill:#a87447;fill-opacity:1;fill-rule:evenodd;stroke:none;stroke-width:1px;stroke-linecap:butt;stroke-linejoin:miter;stroke-opacity:1" />
    <path
       inkscape:connector-curvature="0"
       id="path5584"
       d="m 670.2099,480.80675 -13.0482,-3.49573 0,-150.49576 -11.3113,-3.03085 10e-5,-149.27453 24.3594,6.52539 z"
       style="fill:#a87447;fill-opacity:1;fill-rule:evenodd;stroke:none;stroke-width:1px;stroke-linecap:butt;stroke-linejoin:miter;stroke-opacity:1" />
    <path
       inkscape:connector-curvature="0"
       id="path5586"
       d="m 657.1617,626.64348 -11.3113,-3.03088 0,-139.771 11.3113,-6.53058 z"
       style="fill:#a87447;fill-opacity:1;fill-rule:evenodd;stroke:none;stroke-width:1px;stroke-linecap:butt;stroke-linejoin:miter;stroke-opacity:1" />
    <path
       inkscape:connector-curvature="0"
       id="path5588"
       d="m 623.9245,71.650206 2e-4,10.04131 -309.3633,178.611324 0,-10.04101 z"
       style="fill:#7e644a;fill-opacity:1;fill-rule:evenodd;stroke:none;stroke-width:1px;stroke-linecap:butt;stroke-linejoin:miter;stroke-opacity:1" />
    <path
       inkscape:connector-curvature="0"
       id="path5590"
       d="m 221.4243,60.72732 0,7.639055 128.3594,34.393785 9.0371,-5.217572 z"
       style="fill:#f7efe3;fill-opacity:1;fill-rule:evenodd;stroke:none;stroke-width:1px;stroke-linecap:butt;stroke-linejoin:miter;stroke-opacity:1" />
  </g>
</svg>
